<svg width="30" height="30" viewBox="0 0 30 30" fill="none" xmlns="http://www.w3.org/2000/svg">
<mask id="mask0_19_53" style="mask-type:alpha" maskUnits="userSpaceOnUse" x="0" y="0" width="30" height="30">
<path d="M12.5 6.5V12.5H3.71429C1.93908 12.5 0.5 11.0609 0.5 9.28571V6.5C0.5 3.18629 3.18629 0.5 6.5 0.5C9.81371 0.5 12.5 3.18629 12.5 6.5Z" stroke="black"/>
<path d="M29.5 6.5V9.28571C29.5 11.0609 28.0609 12.5 26.2857 12.5H17.5V6.5C17.5 3.18629 20.1863 0.5 23.5 0.5C26.8137 0.5 29.5 3.18629 29.5 6.5Z" stroke="black"/>
<path d="M6.5 17.5H12.5V23.5C12.5 26.8137 9.81371 29.5 6.5 29.5C3.18629 29.5 0.5 26.8137 0.5 23.5C0.5 20.1863 3.18629 17.5 6.5 17.5Z" stroke="black"/>
<path d="M23.1905 17.5H23.8095C26.9523 17.5 29.5 20.0477 29.5 23.1905V23.5C29.5 26.8137 26.8137 29.5 23.5 29.5C20.1863 29.5 17.5 26.8137 17.5 23.5V23.1905C17.5 20.0477 20.0477 17.5 23.1905 17.5Z" stroke="black"/>
</mask>
<g mask="url(#mask0_19_53)">
<path d="M-5 5C-5 -0.522847 -0.522847 -5 5 -5H21C26.5228 -5 31 -0.522847 31 5V31H-5V5Z" fill="url(#paint0_linear_19_53)"/>
</g>
<defs>
<linearGradient id="paint0_linear_19_53" x1="31" y1="31" x2="-13.5" y2="7" gradientUnits="userSpaceOnUse">
<stop stop-color="#11998E"/>
<stop offset="1" stop-color="#38EF7D"/>
</linearGradient>
</defs>
</svg>
